<svg xmlns="http://www.w3.org/2000/svg" width="32" height="32" viewBox="0 0 32 32"><g transform="translate(-32 -448)"><circle cx="16" cy="16" r="16" transform="translate(32 448)" fill="none"/><path d="M16.53,7.2l-3.06-1.2a.823.823,0,0,0-.59,0L9.82,7.2a.718.718,0,0,0-.47.661,6.039,6.039,0,0,0,3.53,5.682.824.824,0,0,0,.59,0A6.019,6.019,0,0,0,17,7.863.718.718,0,0,0,16.53,7.2Zm-3.355,5.081V7.26l2.537.991a4.751,4.751,0,0,1-2.537,4.032ZM5.95,6.8a3.4,3.4,0,1,0-3.4-3.4A3.4,3.4,0,0,0,5.95,6.8ZM8.5,7.863a1.508,1.508,0,0,1,.029-.191c-.066,0-.13-.021-.2-.021H7.886a4.624,4.624,0,0,1-3.873,0H3.57A3.571,3.571,0,0,0,0,11.22v1.105A1.275,1.275,0,0,0,1.275,13.6h9.35a1.307,1.307,0,0,0,.51-.106A7.137,7.137,0,0,1,8.5,7.863Z" transform="translate(40 457.699)" fill="#f0f0f0"/></g></svg>