<svg xmlns="http://www.w3.org/2000/svg" width="32" height="32" viewBox="0 0 32 32"><g transform="translate(-208 -352)"><g transform="translate(208 352)" fill="none"><path d="M16,0A16,16,0,1,1,0,16,16,16,0,0,1,16,0Z" stroke="none"/><path d="M 16 2 C 12.26045989990234 2 8.744749069213867 3.456249237060547 6.100500106811523 6.100500106811523 C 3.456249237060547 8.744749069213867 2 12.26045989990234 2 16 C 2 19.73954010009766 3.456249237060547 23.2552490234375 6.100500106811523 25.89949989318848 C 8.744749069213867 28.54375076293945 12.26045989990234 30 16 30 C 19.73954010009766 30 23.2552490234375 28.54375076293945 25.89949989318848 25.89949989318848 C 28.54375076293945 23.2552490234375 30 19.73954010009766 30 16 C 30 12.26045989990234 28.54375076293945 8.744749069213867 25.89949989318848 6.100500106811523 C 23.2552490234375 3.456249237060547 19.73954010009766 2 16 2 M 16 0 C 24.8365592956543 0 32 7.163440704345703 32 16 C 32 24.8365592956543 24.8365592956543 32 16 32 C 7.163440704345703 32 0 24.8365592956543 0 16 C 0 7.163440704345703 7.163440704345703 0 16 0 Z" stroke="none" fill="#c8c8c8"/></g><path d="M6.593,35.072a3.418,3.418,0,1,0,3.418,3.418A3.412,3.412,0,0,0,6.593,35.072Zm0,5.64A2.222,2.222,0,1,1,8.815,38.49a2.226,2.226,0,0,1-2.222,2.222Zm4.355-5.78a.8.8,0,1,1-.8-.8A.8.8,0,0,1,10.948,34.933Zm2.264.809a3.945,3.945,0,0,0-1.077-2.793,3.971,3.971,0,0,0-2.793-1.077c-1.1-.062-4.4-.062-5.5,0a3.965,3.965,0,0,0-2.793,1.074A3.958,3.958,0,0,0-.028,35.739c-.062,1.1-.062,4.4,0,5.5a3.945,3.945,0,0,0,1.077,2.793,3.976,3.976,0,0,0,2.793,1.077c1.1.062,4.4.062,5.5,0a3.945,3.945,0,0,0,2.793-1.077,3.971,3.971,0,0,0,1.077-2.793C13.274,40.138,13.274,36.842,13.211,35.742ZM11.79,42.42a2.25,2.25,0,0,1-1.267,1.267,14.691,14.691,0,0,1-3.929.268,14.806,14.806,0,0,1-3.929-.268A2.25,2.25,0,0,1,1.4,42.42a14.691,14.691,0,0,1-.268-3.929A14.806,14.806,0,0,1,1.4,34.561a2.25,2.25,0,0,1,1.267-1.267,14.691,14.691,0,0,1,3.929-.268,14.806,14.806,0,0,1,3.929.268,2.25,2.25,0,0,1,1.267,1.267,14.691,14.691,0,0,1,.268,3.929A14.683,14.683,0,0,1,11.79,42.42Z" transform="translate(217.408 329.508)" fill="#fff"/></g></svg>