<svg xmlns="http://www.w3.org/2000/svg" width="32" height="32" viewBox="0 0 32 32"><g transform="translate(-80 -352)"><g transform="translate(80 352)" fill="none" stroke="#c8c8c8" stroke-width="2"><circle cx="16" cy="16" r="16" stroke="none"/><circle cx="16" cy="16" r="15" fill="none"/></g><path d="M2.985,13.343H.22v-8.9H2.985ZM1.6,3.227A1.609,1.609,0,1,1,3.2,1.611,1.614,1.614,0,0,1,1.6,3.227Zm11.73,10.116H10.572V9.01c0-1.033-.021-2.357-1.437-2.357-1.437,0-1.657,1.122-1.657,2.283v4.408H4.716v-8.9H7.367V5.656h.039a2.9,2.9,0,0,1,2.616-1.438c2.8,0,3.312,1.842,3.312,4.235v4.89Z" transform="translate(89.333 361.324)" fill="#fff"/></g></svg>