<svg id="Layer_1" data-name="Layer 1" xmlns="http://www.w3.org/2000/svg" viewBox="0 0 80 32"><defs><style>.cls-1{fill:none;}.cls-2{isolation:isolate;}.cls-3{fill:#fff;}</style></defs><title>Logo</title><g id="Logo"><rect id="Rectangle_2" data-name="Rectangle 2" class="cls-1" width="80" height="32"/><g id="Group_35" data-name="Group 35"><g class="cls-2"><path class="cls-3" d="M2.3,13.39v-3.1H15.6v3.1H10.7v13H7.3v-13Z"/><path class="cls-3" d="M17.6,26.39V10.29H29v3H21.1v3.4h7.2v3H21.1v3.7h8v3Z"/><path class="cls-3" d="M31.9,26.39V10.29h3.4v6.4h2.6l4.1-6.4h3.8l-5.2,7.9,5.5,8.2H42.3l-4.4-6.6H35.3v6.6Z"/></g><path class="cls-3" d="M75.5,7.29H66.3l3.2-5.4a.94.94,0,1,0-1.6-1L64,7.29H61.5L57.7.89a1,1,0,0,0-1.3-.3.87.87,0,0,0-.3,1.3l3.2,5.4H50.1A2.18,2.18,0,0,0,48,9.39v17.8a2.11,2.11,0,0,0,2.1,2.1H75.4a2.11,2.11,0,0,0,2.1-2.1V9.39A2,2,0,0,0,75.5,7.29ZM64.1,25.09l-4.4-12.9V14H55.8v11.1H53.7V14H49.8v-1.8H61.7l2.6,8c.3.3.3.8.5,1.5a3,3,0,0,1,.3,1.3c0-.5.3-1,.3-1.5.3-.5.3-1,.5-1.3l3.1-8h2.1l-4.6,12.9Zm8.9-.9a2,2,0,1,1,2-2A1.89,1.89,0,0,1,73,24.19Zm0-7.7a2,2,0,1,1,2-2A1.89,1.89,0,0,1,73,16.49Z"/></g></g></svg>