<svg xmlns="http://www.w3.org/2000/svg" width="146" height="41" viewBox="0 0 146 41"><defs><style>.a{fill:none;}.b{fill:#fff;}.c{fill:#f0f0f0;font-size:12px;font-family:Lato-Regular, Lato;}</style></defs><g transform="translate(-48 1)"><rect class="a" width="64" height="26" transform="translate(48 -1)"/><g transform="translate(48 -1)"><rect class="a" width="64" height="25.6"/><g transform="translate(1.84 0.357)"><g transform="translate(0 7.875)"><path class="b" d="M2.3,12.77V10.29H12.94v2.48H9.02v10.4H6.3V12.77Z" transform="translate(-2.3 -10.29)"/><path class="b" d="M17.6,23.17V10.29h9.12v2.4H20.4v2.72h5.76v2.4H20.4v2.96h6.4v2.4Z" transform="translate(-5.36 -10.29)"/><path class="b" d="M31.9,23.17V10.29h2.72v5.12H36.7l3.28-5.12h3.04l-4.16,6.32,4.4,6.56H40.22L36.7,17.89H34.62v5.28Z" transform="translate(-8.22 -10.29)"/></g><path class="b" d="M70,5.921H62.64L65.2,1.6A.755.755,0,1,0,63.92.8L60.8,5.921h-2L55.76.8a.8.8,0,0,0-1.04-.24.7.7,0,0,0-.24,1.04l2.56,4.32H49.68A1.744,1.744,0,0,0,48,7.6v14.24a1.688,1.688,0,0,0,1.68,1.68H69.92a1.688,1.688,0,0,0,1.68-1.68V7.6A1.6,1.6,0,0,0,70,5.921Zm-9.12,14.24L57.36,9.841v1.448H54.24v8.88H52.56v-8.88H49.44V9.849h9.52l2.08,6.4c.24.24.24.64.4,1.2a2.4,2.4,0,0,1,.24,1.04c0-.4.24-.8.24-1.2.24-.4.24-.8.4-1.04l2.48-6.4h1.68L62.8,20.169Zm7.12-.72a1.6,1.6,0,1,1,1.6-1.6,1.512,1.512,0,0,1-1.6,1.6Zm0-6.16a1.6,1.6,0,1,1,1.6-1.6,1.512,1.512,0,0,1-1.6,1.6Z" transform="translate(-11.44 -0.446)"/></g></g><text class="c" transform="translate(48 37)"><tspan x="0" y="0">Powered by TEK TGS - India</tspan></text></g></svg>