<svg xmlns="http://www.w3.org/2000/svg" width="32" height="32" viewBox="0 0 32 32"><g transform="translate(-80 -64)"><rect width="32" height="32" transform="translate(80 64)" fill="none"/><path d="M3.453,7.438H.8a.8.8,0,0,0-.8.8V16.2a.8.8,0,0,0,.8.8H3.453a.8.8,0,0,0,.8-.8V8.234A.8.8,0,0,0,3.453,7.438ZM2.125,15.672a.8.8,0,1,1,.8-.8A.8.8,0,0,1,2.125,15.672ZM12.75,2.7c0,1.408-.862,2.2-1.1,3.139h3.378A1.984,1.984,0,0,1,17,7.773a2.4,2.4,0,0,1-.645,1.633l0,0a2.774,2.774,0,0,1-.309,2.639,2.626,2.626,0,0,1-.544,2.482,1.763,1.763,0,0,1-.2,1.482c-.678.974-2.357.987-3.778.987h-.094a9.532,9.532,0,0,1-3.97-1.053A5.225,5.225,0,0,0,5.7,15.409a.4.4,0,0,1-.391-.4v-7.1a.4.4,0,0,1,.118-.283c1.315-1.3,1.881-2.676,2.959-3.756a4.021,4.021,0,0,0,.843-1.956C9.38,1.3,9.689,0,10.359,0,11.156,0,12.75.266,12.75,2.7Z" transform="translate(105 89) rotate(180)" fill="#022c43"/></g></svg>