<svg xmlns="http://www.w3.org/2000/svg" width="32" height="32" viewBox="0 0 32 32"><g transform="translate(-727 -615)"><rect width="32" height="32" transform="translate(727 615)" fill="none"/><path d="M.486,7.98A3.289,3.289,0,0,1,.8,5.749a3.415,3.415,0,0,1,.614-2.373C1.453,1.4,2.688,0,5.419,0h.787c3.669,0,4.809,1.416,6.261,1.416h.384a1.129,1.129,0,0,1,.749-.283h2.267A1.133,1.133,0,0,1,17,2.267v8.5A1.133,1.133,0,0,1,15.867,11.9H13.6a1.133,1.133,0,0,1-.981-.567h-.25c-.678.6-1.63,2.148-2.435,2.954-.484.484-.36,3.846-2.541,3.846-2.039,0-3.374-1.131-3.374-3.709a4.522,4.522,0,0,1,.313-1.648H3.039A3.082,3.082,0,0,1,0,9.745,3.349,3.349,0,0,1,.486,7.98Zm14.247,2.5a.85.85,0,1,0-.85-.85A.85.85,0,0,0,14.733,10.483Zm-11.694.593H6.722c0,1.339-1,1.961-1,3.348,0,.841,0,2.009,1.674,2.009.67-.67.335-2.344,1.339-3.348.941-.941,2.344-3.452,3.348-3.452h.387V3.04c-1.9,0-3.542-1.339-6.079-1.339H5.048c-1.258,0-2.154.606-1.881,2.334a1.573,1.573,0,0,0-.494,2.039A1.7,1.7,0,0,0,2.489,8.4c-.335,0-.792.67-.789,1.339A1.383,1.383,0,0,0,3.039,11.076Z" transform="translate(735 622)" fill="#115173"/></g></svg>