<svg xmlns="http://www.w3.org/2000/svg" width="32" height="32" viewBox="0 0 32 32"><g transform="translate(-165.333 -352)"><g transform="translate(165.333 352)" fill="none"><path d="M16,0A16,16,0,1,1,0,16,16,16,0,0,1,16,0Z" stroke="none"/><path d="M 16 2 C 12.26045989990234 2 8.744749069213867 3.456249237060547 6.100500106811523 6.100500106811523 C 3.456249237060547 8.744749069213867 2 12.26045989990234 2 16 C 2 19.73954010009766 3.456249237060547 23.2552490234375 6.100500106811523 25.89949989318848 C 8.744749069213867 28.54375076293945 12.26045989990234 30 16 30 C 19.73954010009766 30 23.2552490234375 28.54375076293945 25.89949989318848 25.89949989318848 C 28.54375076293945 23.2552490234375 30 19.73954010009766 30 16 C 30 12.26045989990234 28.54375076293945 8.744749069213867 25.89949989318848 6.100500106811523 C 23.2552490234375 3.456249237060547 19.73954010009766 2 16 2 M 16 0 C 24.8365592956543 0 32 7.163440704345703 32 16 C 32 24.8365592956543 24.8365592956543 32 16 32 C 7.163440704345703 32 0 24.8365592956543 0 16 C 0 7.163440704345703 7.163440704345703 0 16 0 Z" stroke="none" fill="#c8c8c8"/></g><path d="M14.355,51.321c.01.142.01.284.01.426a9.266,9.266,0,0,1-9.33,9.33A9.267,9.267,0,0,1,0,59.6a6.783,6.783,0,0,0,.792.041,6.567,6.567,0,0,0,4.071-1.4A3.285,3.285,0,0,1,1.8,55.97a4.135,4.135,0,0,0,.619.051,3.468,3.468,0,0,0,.863-.112A3.28,3.28,0,0,1,.65,52.691v-.041a3.3,3.3,0,0,0,1.482.416,3.284,3.284,0,0,1-1.015-4.386,9.321,9.321,0,0,0,6.761,3.431,3.7,3.7,0,0,1-.081-.751,3.282,3.282,0,0,1,5.675-2.244,6.456,6.456,0,0,0,2.081-.792,3.27,3.27,0,0,1-1.442,1.807A6.574,6.574,0,0,0,16,49.625,7.049,7.049,0,0,1,14.355,51.321Z" transform="translate(173.333 313.251)" fill="#fff"/></g></svg>