<svg xmlns="http://www.w3.org/2000/svg" width="32" height="32" viewBox="0 0 32 32"><g transform="translate(-122.667 -352)"><g transform="translate(122.667 352)" fill="none"><path d="M16,0A16,16,0,1,1,0,16,16,16,0,0,1,16,0Z" stroke="none"/><path d="M 16 2 C 12.26045989990234 2 8.744749069213867 3.456249237060547 6.100500106811523 6.100500106811523 C 3.456249237060547 8.744749069213867 2 12.26045989990234 2 16 C 2 19.73954010009766 3.456249237060547 23.2552490234375 6.100500106811523 25.89949989318848 C 8.744749069213867 28.54375076293945 12.26045989990234 30 16 30 C 19.73954010009766 30 23.2552490234375 28.54375076293945 25.89949989318848 25.89949989318848 C 28.54375076293945 23.2552490234375 30 19.73954010009766 30 16 C 30 12.26045989990234 28.54375076293945 8.744749069213867 25.89949989318848 6.100500106811523 C 23.2552490234375 3.456249237060547 19.73954010009766 2 16 2 M 16 0 C 24.8365592956543 0 32 7.163440704345703 32 16 C 32 24.8365592956543 24.8365592956543 32 16 32 C 7.163440704345703 32 0 24.8365592956543 0 16 C 0 7.163440704345703 7.163440704345703 0 16 0 Z" stroke="none" fill="#c8c8c8"/></g><path d="M30.6,65.76a2.01,2.01,0,0,0-1.415-1.424A47.512,47.512,0,0,0,22.933,64a47.512,47.512,0,0,0-6.251.336,2.01,2.01,0,0,0-1.415,1.424,22.636,22.636,0,0,0,0,7.752,1.98,1.98,0,0,0,1.415,1.4,47.512,47.512,0,0,0,6.251.336,47.512,47.512,0,0,0,6.251-.336,1.98,1.98,0,0,0,1.415-1.4,22.636,22.636,0,0,0,0-7.752Zm-9.3,6.255V67.257l4.182,2.379Z" transform="translate(115.734 298.667)" fill="#fff"/></g></svg>